<svg width="92" height="40" viewBox="0 0 92 40" fill="none" xmlns="http://www.w3.org/2000/svg">
<rect x="20" width="72" height="20" fill="#EC148E"/>
<rect x="20" y="20" width="64" height="20" fill="#3F3C4A"/>
<path d="M43.2158 15V4.02399H48.7198C49.5305 4.02399 50.1972 4.16799 50.7198 4.45599C51.2532 4.74399 51.6532 5.14932 51.9198 5.67199C52.1865 6.19465 52.3198 6.81865 52.3198 7.54399C52.3198 8.25865 52.1812 8.88265 51.9038 9.41599C51.6265 9.94932 51.2105 10.3653 50.6558 10.664C50.1118 10.952 49.4292 11.096 48.6078 11.096H45.2958V15H43.2158ZM45.2958 9.31999H48.5438C49.0772 9.31999 49.4878 9.16532 49.7758 8.85599C50.0745 8.53599 50.2238 8.09865 50.2238 7.54399C50.2238 7.17065 50.1598 6.85599 50.0318 6.59999C49.9038 6.34399 49.7172 6.14665 49.4718 6.00799C49.2265 5.86932 48.9172 5.79999 48.5438 5.79999H45.2958V9.31999Z" fill="white"/>
<path d="M57.3463 15.192C56.429 15.192 55.661 15.0373 55.0423 14.728C54.4237 14.408 53.9597 13.9227 53.6503 13.272C53.341 12.6213 53.1863 11.7947 53.1863 10.792C53.1863 9.77865 53.341 8.95199 53.6503 8.31199C53.9597 7.66132 54.4237 7.18132 55.0423 6.87199C55.661 6.55199 56.429 6.39199 57.3463 6.39199C58.2743 6.39199 59.0423 6.55199 59.6503 6.87199C60.269 7.18132 60.733 7.66132 61.0423 8.31199C61.3517 8.95199 61.5063 9.77865 61.5063 10.792C61.5063 11.7947 61.3517 12.6213 61.0423 13.272C60.733 13.9227 60.269 14.408 59.6503 14.728C59.0423 15.0373 58.2743 15.192 57.3463 15.192ZM57.3463 13.592C57.8583 13.592 58.269 13.496 58.5783 13.304C58.8983 13.1013 59.1277 12.8027 59.2663 12.408C59.4157 12.0027 59.4903 11.5013 59.4903 10.904V10.68C59.4903 10.0827 59.4157 9.58665 59.2663 9.19199C59.1277 8.78665 58.8983 8.48799 58.5783 8.29599C58.269 8.09332 57.8583 7.99199 57.3463 7.99199C56.8343 7.99199 56.4183 8.09332 56.0983 8.29599C55.789 8.48799 55.5597 8.78665 55.4103 9.19199C55.2717 9.58665 55.2023 10.0827 55.2023 10.68V10.904C55.2023 11.5013 55.2717 12.0027 55.4103 12.408C55.5597 12.8027 55.789 13.1013 56.0983 13.304C56.4183 13.496 56.8343 13.592 57.3463 13.592Z" fill="white"/>
<path d="M66.4448 15.192C65.8368 15.192 65.3035 15.128 64.8448 15C64.3862 14.8613 64.0022 14.6747 63.6928 14.44C63.3835 14.2053 63.1488 13.9333 62.9888 13.624C62.8395 13.304 62.7648 12.9573 62.7648 12.584C62.7648 12.5307 62.7648 12.4827 62.7648 12.44C62.7755 12.3973 62.7808 12.3653 62.7808 12.344H64.7008C64.7008 12.3653 64.7008 12.3867 64.7008 12.408C64.7008 12.4293 64.7008 12.4507 64.7008 12.472C64.7115 12.76 64.8022 12.9947 64.9728 13.176C65.1435 13.3467 65.3675 13.4693 65.6448 13.544C65.9222 13.6187 66.2155 13.656 66.5248 13.656C66.8022 13.656 67.0635 13.6293 67.3088 13.576C67.5648 13.512 67.7728 13.416 67.9328 13.288C68.1035 13.1493 68.1888 12.9733 68.1888 12.76C68.1888 12.4827 68.0822 12.2693 67.8688 12.12C67.6555 11.9707 67.3728 11.848 67.0208 11.752C66.6795 11.656 66.3115 11.5547 65.9168 11.448C65.5648 11.352 65.2128 11.2453 64.8608 11.128C64.5088 11.0107 64.1888 10.8613 63.9008 10.68C63.6235 10.4987 63.3942 10.264 63.2128 9.97599C63.0422 9.68799 62.9568 9.33065 62.9568 8.90399C62.9568 8.48799 63.0475 8.12532 63.2288 7.81599C63.4102 7.50665 63.6608 7.25065 63.9808 7.04799C64.3008 6.83465 64.6795 6.67465 65.1168 6.56799C65.5542 6.46132 66.0288 6.40799 66.5408 6.40799C67.0422 6.40799 67.4955 6.46132 67.9008 6.56799C68.3168 6.67465 68.6742 6.82932 68.9728 7.03199C69.2822 7.22399 69.5168 7.46399 69.6768 7.75199C69.8475 8.02932 69.9328 8.33865 69.9328 8.67999C69.9328 8.75465 69.9275 8.82932 69.9168 8.90399C69.9168 8.97865 69.9168 9.02132 69.9168 9.03199H68.0128V8.91999C68.0128 8.71732 67.9488 8.54665 67.8208 8.40799C67.7035 8.25865 67.5275 8.14132 67.2928 8.05599C67.0688 7.97065 66.7862 7.92799 66.4448 7.92799C66.1888 7.92799 65.9648 7.94932 65.7728 7.99199C65.5808 8.03465 65.4208 8.09332 65.2928 8.16799C65.1755 8.24265 65.0848 8.32799 65.0208 8.42399C64.9568 8.51999 64.9248 8.62665 64.9248 8.74399C64.9248 8.94665 65.0048 9.10665 65.1648 9.22399C65.3248 9.34132 65.5382 9.44265 65.8048 9.52799C66.0822 9.61332 66.3808 9.70399 66.7008 9.79999C67.0848 9.90665 67.4795 10.0187 67.8848 10.136C68.2902 10.2427 68.6635 10.3813 69.0048 10.552C69.3568 10.7227 69.6395 10.9627 69.8528 11.272C70.0662 11.5813 70.1728 11.992 70.1728 12.504C70.1728 12.9947 70.0768 13.416 69.8848 13.768C69.7035 14.1093 69.4422 14.3867 69.1008 14.6C68.7702 14.8027 68.3755 14.952 67.9168 15.048C67.4688 15.144 66.9782 15.192 66.4448 15.192Z" fill="white"/>
<path d="M74.0451 15.192C73.5224 15.192 73.1117 15.0907 72.8131 14.888C72.5144 14.6747 72.3011 14.408 72.1731 14.088C72.0557 13.7573 71.9971 13.4213 71.9971 13.08V8.18399H70.9891V6.58399H72.0451L72.3971 4.23199H73.9491V6.58399H75.4051V8.18399H73.9491V12.888C73.9491 13.112 74.0077 13.288 74.1251 13.416C74.2424 13.5333 74.4184 13.592 74.6531 13.592H75.4051V14.936C75.2984 14.9787 75.1651 15.016 75.0051 15.048C74.8557 15.0907 74.6957 15.1227 74.5251 15.144C74.3544 15.176 74.1944 15.192 74.0451 15.192Z" fill="white"/>
<path d="M43.2158 35V24.024H45.2958V28.488H50.4158V24.024H52.4958V35H50.4158V30.28H45.2958V35H43.2158Z" fill="white"/>
<path d="M58.5026 35.192C57.5852 35.192 56.8172 35.0373 56.1986 34.728C55.5799 34.408 55.1159 33.9227 54.8066 33.272C54.4972 32.6213 54.3426 31.7947 54.3426 30.792C54.3426 29.7787 54.4972 28.952 54.8066 28.312C55.1159 27.6613 55.5799 27.1813 56.1986 26.872C56.8172 26.552 57.5852 26.392 58.5026 26.392C59.4306 26.392 60.1986 26.552 60.8066 26.872C61.4252 27.1813 61.8892 27.6613 62.1986 28.312C62.5079 28.952 62.6626 29.7787 62.6626 30.792C62.6626 31.7947 62.5079 32.6213 62.1986 33.272C61.8892 33.9227 61.4252 34.408 60.8066 34.728C60.1986 35.0373 59.4306 35.192 58.5026 35.192ZM58.5026 33.592C59.0146 33.592 59.4252 33.496 59.7346 33.304C60.0546 33.1013 60.2839 32.8027 60.4226 32.408C60.5719 32.0027 60.6466 31.5013 60.6466 30.904V30.68C60.6466 30.0827 60.5719 29.5867 60.4226 29.192C60.2839 28.7867 60.0546 28.488 59.7346 28.296C59.4252 28.0933 59.0146 27.992 58.5026 27.992C57.9906 27.992 57.5746 28.0933 57.2546 28.296C56.9452 28.488 56.7159 28.7867 56.5666 29.192C56.4279 29.5867 56.3586 30.0827 56.3586 30.68V30.904C56.3586 31.5013 56.4279 32.0027 56.5666 32.408C56.7159 32.8027 56.9452 33.1013 57.2546 33.304C57.5746 33.496 57.9906 33.592 58.5026 33.592Z" fill="white"/>
<path d="M66.5451 35.192C66.0224 35.192 65.6117 35.0907 65.3131 34.888C65.0144 34.6747 64.8011 34.408 64.6731 34.088C64.5557 33.7573 64.4971 33.4213 64.4971 33.08V28.184H63.4891V26.584H64.5451L64.8971 24.232H66.4491V26.584H67.9051V28.184H66.4491V32.888C66.4491 33.112 66.5077 33.288 66.6251 33.416C66.7424 33.5333 66.9184 33.592 67.1531 33.592H67.9051V34.936C67.7984 34.9787 67.6651 35.016 67.5051 35.048C67.3557 35.0907 67.1957 35.1227 67.0251 35.144C66.8544 35.176 66.6944 35.192 66.5451 35.192Z" fill="white"/>
<circle cx="20" cy="20" r="19" fill="white" stroke="#EC148E" stroke-width="2"/>
<path d="M25.6723 19.2C25.4423 18.9 25.1623 18.64 24.9023 18.38C24.2323 17.78 23.4723 17.35 22.8323 16.72C21.3423 15.26 21.0123 12.85 21.9623 11C21.0123 11.23 20.1823 11.75 19.4723 12.32C16.8823 14.4 15.8623 18.07 17.0823 21.22C17.1223 21.32 17.1623 21.42 17.1623 21.55C17.1623 21.77 17.0123 21.97 16.8123 22.05C16.5823 22.15 16.3423 22.09 16.1523 21.93C16.0923 21.88 16.0523 21.83 16.0123 21.76C14.8823 20.33 14.7023 18.28 15.4623 16.64C13.7923 18 12.8823 20.3 13.0123 22.47C13.0723 22.97 13.1323 23.47 13.3023 23.97C13.4423 24.57 13.7123 25.17 14.0123 25.7C15.0923 27.43 16.9623 28.67 18.9723 28.92C21.1123 29.19 23.4023 28.8 25.0423 27.32C26.8723 25.66 27.5123 23 26.5723 20.72L26.4423 20.46C26.2323 20 25.6723 19.2 25.6723 19.2ZM22.5123 25.5C22.2323 25.74 21.7723 26 21.4123 26.1C20.2923 26.5 19.1723 25.94 18.5123 25.28C19.7023 25 20.4123 24.12 20.6223 23.23C20.7923 22.43 20.4723 21.77 20.3423 21C20.2223 20.26 20.2423 19.63 20.5123 18.94C20.7023 19.32 20.9023 19.7 21.1423 20C21.9123 21 23.1223 21.44 23.3823 22.8C23.4223 22.94 23.4423 23.08 23.4423 23.23C23.4723 24.05 23.1123 24.95 22.5123 25.5Z" fill="#EC148E"/>
</svg>
