<svg width="92" height="40" viewBox="0 0 92 40" fill="none" xmlns="http://www.w3.org/2000/svg">
<rect width="72" height="20" fill="#EC148E"/>
<rect x="8" y="20" width="64" height="20" fill="#3F3C4A"/>
<circle cx="72" cy="20" r="19" fill="white" stroke="#EC148E" stroke-width="2"/>
<path d="M13.3122 15.192C12.7042 15.192 12.1229 15.128 11.5682 15C11.0135 14.8613 10.5229 14.6533 10.0962 14.376C9.66955 14.088 9.33355 13.736 9.08821 13.32C8.84288 12.8933 8.72021 12.392 8.72021 11.816C8.72021 11.752 8.72021 11.688 8.72021 11.624C8.73088 11.56 8.73621 11.512 8.73621 11.48H10.8322C10.8322 11.5013 10.8269 11.544 10.8162 11.608C10.8162 11.6613 10.8162 11.7093 10.8162 11.752C10.8162 12.104 10.9175 12.408 11.1202 12.664C11.3229 12.9093 11.6162 13.1013 12.0002 13.24C12.3842 13.368 12.8375 13.432 13.3602 13.432C13.7122 13.432 14.0215 13.4107 14.2882 13.368C14.5655 13.3253 14.8002 13.2667 14.9922 13.192C15.1949 13.1067 15.3602 13.0107 15.4882 12.904C15.6162 12.7867 15.7069 12.6587 15.7602 12.52C15.8242 12.3813 15.8562 12.232 15.8562 12.072C15.8562 11.7627 15.7602 11.5067 15.5682 11.304C15.3762 11.1013 15.1149 10.9307 14.7842 10.792C14.4642 10.6533 14.0962 10.5307 13.6802 10.424C13.2749 10.3067 12.8535 10.1893 12.4162 10.072C11.9895 9.95467 11.5682 9.81601 11.1522 9.65601C10.7469 9.48534 10.3789 9.28267 10.0482 9.04801C9.72821 8.81334 9.47221 8.52001 9.28021 8.16801C9.08821 7.80534 8.99221 7.37334 8.99221 6.87201C8.99221 6.36001 9.09888 5.91201 9.31221 5.52801C9.53621 5.14401 9.84555 4.82934 10.2402 4.58401C10.6455 4.32801 11.1149 4.14134 11.6482 4.02401C12.1815 3.89601 12.7629 3.83201 13.3922 3.83201C13.9789 3.83201 14.5282 3.89601 15.0402 4.02401C15.5629 4.14134 16.0215 4.33334 16.4162 4.60001C16.8109 4.85601 17.1202 5.18667 17.3442 5.59201C17.5682 5.98667 17.6802 6.46134 17.6802 7.01601V7.20801H15.6162V7.04801C15.6162 6.73867 15.5202 6.47734 15.3282 6.26401C15.1469 6.05067 14.8855 5.88534 14.5442 5.76801C14.2135 5.65067 13.8242 5.59201 13.3762 5.59201C12.8962 5.59201 12.4855 5.64001 12.1442 5.73601C11.8029 5.82134 11.5415 5.95467 11.3602 6.13601C11.1789 6.30667 11.0882 6.52001 11.0882 6.77601C11.0882 7.04267 11.1842 7.26667 11.3762 7.44801C11.5682 7.62934 11.8242 7.78401 12.1442 7.91201C12.4749 8.04001 12.8429 8.15734 13.2482 8.26401C13.6642 8.37067 14.0855 8.48801 14.5122 8.61601C14.9495 8.73334 15.3709 8.87201 15.7762 9.03201C16.1922 9.19201 16.5602 9.39467 16.8802 9.64001C17.2109 9.87467 17.4722 10.168 17.6642 10.52C17.8562 10.872 17.9522 11.2933 17.9522 11.784C17.9522 12.6053 17.7495 13.2667 17.3442 13.768C16.9495 14.2693 16.4002 14.632 15.6962 14.856C15.0029 15.08 14.2082 15.192 13.3122 15.192Z" fill="white"/>
<path d="M19.7121 15V3.43201H21.6641V7.54401H21.7761C21.9574 7.32001 22.1708 7.12267 22.4161 6.95201C22.6614 6.78134 22.9388 6.64801 23.2481 6.55201C23.5681 6.44534 23.9201 6.39201 24.3041 6.39201C24.8374 6.39201 25.3068 6.48801 25.7121 6.68001C26.1281 6.87201 26.4534 7.18134 26.6881 7.60801C26.9228 8.03467 27.0401 8.60534 27.0401 9.32001V15H25.0721V9.67201C25.0721 9.37334 25.0348 9.12801 24.9601 8.93601C24.8961 8.73334 24.7948 8.57334 24.6561 8.45601C24.5281 8.32801 24.3681 8.23734 24.1761 8.18401C23.9841 8.13067 23.7708 8.10401 23.5361 8.10401C23.1841 8.10401 22.8641 8.18934 22.5761 8.36001C22.2988 8.53067 22.0748 8.76534 21.9041 9.06401C21.7441 9.36267 21.6641 9.70934 21.6641 10.104V15H19.7121Z" fill="white"/>
<path d="M32.7998 15.192C31.8825 15.192 31.1145 15.0373 30.4958 14.728C29.8772 14.408 29.4132 13.9227 29.1038 13.272C28.7945 12.6213 28.6398 11.7947 28.6398 10.792C28.6398 9.77867 28.7945 8.95201 29.1038 8.31201C29.4132 7.66134 29.8772 7.18134 30.4958 6.87201C31.1145 6.55201 31.8825 6.39201 32.7998 6.39201C33.7278 6.39201 34.4958 6.55201 35.1038 6.87201C35.7225 7.18134 36.1865 7.66134 36.4958 8.31201C36.8052 8.95201 36.9598 9.77867 36.9598 10.792C36.9598 11.7947 36.8052 12.6213 36.4958 13.272C36.1865 13.9227 35.7225 14.408 35.1038 14.728C34.4958 15.0373 33.7278 15.192 32.7998 15.192ZM32.7998 13.592C33.3118 13.592 33.7225 13.496 34.0318 13.304C34.3518 13.1013 34.5812 12.8027 34.7198 12.408C34.8692 12.0027 34.9438 11.5013 34.9438 10.904V10.68C34.9438 10.0827 34.8692 9.58667 34.7198 9.19201C34.5812 8.78667 34.3518 8.48801 34.0318 8.29601C33.7225 8.09334 33.3118 7.99201 32.7998 7.99201C32.2878 7.99201 31.8718 8.09334 31.5518 8.29601C31.2425 8.48801 31.0132 8.78667 30.8638 9.19201C30.7252 9.58667 30.6558 10.0827 30.6558 10.68V10.904C30.6558 11.5013 30.7252 12.0027 30.8638 12.408C31.0132 12.8027 31.2425 13.1013 31.5518 13.304C31.8718 13.496 32.2878 13.592 32.7998 13.592Z" fill="white"/>
<path d="M40.1383 15L37.6263 6.58401H39.6423L40.8103 11.16C40.8743 11.3947 40.9277 11.6293 40.9703 11.864C41.013 12.088 41.0503 12.28 41.0823 12.44C41.1143 12.6 41.1357 12.696 41.1463 12.728H41.2423C41.285 12.536 41.3277 12.328 41.3703 12.104C41.413 11.88 41.4503 11.6773 41.4823 11.496C41.525 11.304 41.5517 11.176 41.5623 11.112L42.6503 6.58401H44.7463L45.8823 11.128C45.925 11.2773 45.9623 11.4533 45.9943 11.656C46.037 11.848 46.0797 12.04 46.1223 12.232C46.165 12.424 46.197 12.5893 46.2183 12.728H46.3143C46.3357 12.6 46.3623 12.4453 46.3943 12.264C46.437 12.0827 46.4797 11.896 46.5223 11.704C46.565 11.512 46.6023 11.336 46.6343 11.176L47.7863 6.58401H49.6583L47.1623 15H45.0983L44.1383 10.984C44.0957 10.7813 44.0423 10.552 43.9783 10.296C43.925 10.04 43.8717 9.78401 43.8183 9.52801C43.7757 9.27201 43.7383 9.05334 43.7063 8.87201H43.6103C43.6103 8.94667 43.5943 9.08001 43.5623 9.27201C43.5303 9.46401 43.4823 9.70401 43.4183 9.99201C43.365 10.28 43.2903 10.6107 43.1943 10.984L42.2023 15H40.1383Z" fill="white"/>
<path d="M19.3122 35.192C18.7042 35.192 18.1229 35.128 17.5682 35C17.0135 34.8613 16.5229 34.6533 16.0962 34.376C15.6695 34.088 15.3335 33.736 15.0882 33.32C14.8429 32.8933 14.7202 32.392 14.7202 31.816C14.7202 31.752 14.7202 31.688 14.7202 31.624C14.7309 31.56 14.7362 31.512 14.7362 31.48H16.8322C16.8322 31.5013 16.8269 31.544 16.8162 31.608C16.8162 31.6613 16.8162 31.7093 16.8162 31.752C16.8162 32.104 16.9175 32.408 17.1202 32.664C17.3229 32.9093 17.6162 33.1013 18.0002 33.24C18.3842 33.368 18.8375 33.432 19.3602 33.432C19.7122 33.432 20.0215 33.4107 20.2882 33.368C20.5655 33.3253 20.8002 33.2667 20.9922 33.192C21.1949 33.1067 21.3602 33.0107 21.4882 32.904C21.6162 32.7867 21.7069 32.6587 21.7602 32.52C21.8242 32.3813 21.8562 32.232 21.8562 32.072C21.8562 31.7627 21.7602 31.5067 21.5682 31.304C21.3762 31.1013 21.1149 30.9307 20.7842 30.792C20.4642 30.6533 20.0962 30.5307 19.6802 30.424C19.2749 30.3067 18.8535 30.1893 18.4162 30.072C17.9895 29.9547 17.5682 29.816 17.1522 29.656C16.7469 29.4853 16.3789 29.2827 16.0482 29.048C15.7282 28.8133 15.4722 28.52 15.2802 28.168C15.0882 27.8053 14.9922 27.3733 14.9922 26.872C14.9922 26.36 15.0989 25.912 15.3122 25.528C15.5362 25.144 15.8455 24.8293 16.2402 24.584C16.6455 24.328 17.1149 24.1413 17.6482 24.024C18.1815 23.896 18.7629 23.832 19.3922 23.832C19.9789 23.832 20.5282 23.896 21.0402 24.024C21.5629 24.1413 22.0215 24.3333 22.4162 24.6C22.8109 24.856 23.1202 25.1867 23.3442 25.592C23.5682 25.9867 23.6802 26.4613 23.6802 27.016V27.208H21.6162V27.048C21.6162 26.7387 21.5202 26.4773 21.3282 26.264C21.1469 26.0507 20.8855 25.8853 20.5442 25.768C20.2135 25.6507 19.8242 25.592 19.3762 25.592C18.8962 25.592 18.4855 25.64 18.1442 25.736C17.8029 25.8213 17.5415 25.9547 17.3602 26.136C17.1789 26.3067 17.0882 26.52 17.0882 26.776C17.0882 27.0427 17.1842 27.2667 17.3762 27.448C17.5682 27.6293 17.8242 27.784 18.1442 27.912C18.4749 28.04 18.8429 28.1573 19.2482 28.264C19.6642 28.3707 20.0855 28.488 20.5122 28.616C20.9495 28.7333 21.3709 28.872 21.7762 29.032C22.1922 29.192 22.5602 29.3947 22.8802 29.64C23.2109 29.8747 23.4722 30.168 23.6642 30.52C23.8562 30.872 23.9522 31.2933 23.9522 31.784C23.9522 32.6053 23.7495 33.2667 23.3442 33.768C22.9495 34.2693 22.4002 34.632 21.6962 34.856C21.0029 35.08 20.2082 35.192 19.3122 35.192Z" fill="white"/>
<path d="M29.3281 35.192C28.4321 35.192 27.6854 35.0373 27.0881 34.728C26.4908 34.408 26.0428 33.9227 25.7441 33.272C25.4454 32.6213 25.2961 31.7947 25.2961 30.792C25.2961 29.7787 25.4454 28.952 25.7441 28.312C26.0428 27.6613 26.4908 27.1813 27.0881 26.872C27.6854 26.552 28.4321 26.392 29.3281 26.392C30.1388 26.392 30.8161 26.5467 31.3601 26.856C31.9148 27.1547 32.3308 27.6187 32.6081 28.248C32.8854 28.8773 33.0241 29.6933 33.0241 30.696V31.272H27.2961C27.3174 31.7947 27.3974 32.2373 27.5361 32.6C27.6748 32.952 27.8881 33.2187 28.1761 33.4C28.4748 33.5707 28.8641 33.656 29.3441 33.656C29.5894 33.656 29.8188 33.624 30.0321 33.56C30.2454 33.496 30.4321 33.4 30.5921 33.272C30.7521 33.1333 30.8748 32.9627 30.9601 32.76C31.0561 32.5573 31.1041 32.3227 31.1041 32.056H33.0241C33.0241 32.5893 32.9281 33.0533 32.7361 33.448C32.5548 33.8427 32.2934 34.168 31.9521 34.424C31.6214 34.68 31.2321 34.872 30.7841 35C30.3361 35.128 29.8508 35.192 29.3281 35.192ZM27.3281 29.896H30.9921C30.9921 29.544 30.9494 29.2453 30.8641 29C30.7894 28.7547 30.6774 28.552 30.5281 28.392C30.3894 28.232 30.2188 28.12 30.0161 28.056C29.8134 27.9813 29.5841 27.944 29.3281 27.944C28.9121 27.944 28.5601 28.0133 28.2721 28.152C27.9948 28.2907 27.7814 28.504 27.6321 28.792C27.4828 29.08 27.3814 29.448 27.3281 29.896Z" fill="white"/>
<path d="M33.7227 35L36.7307 30.664L33.9307 26.584H36.2987L37.9627 29.192H38.0587L39.7547 26.584H41.9787L39.1627 30.616L42.1387 35H39.8027L37.9307 32.088H37.8347L35.9467 35H33.7227Z" fill="white"/>
<path d="M44.4571 37.912C44.0624 37.912 43.7424 37.88 43.4971 37.816C43.2518 37.7627 43.1131 37.7307 43.0811 37.72V36.328H43.9771C44.2011 36.328 44.4251 36.2693 44.6491 36.152C44.8731 36.0347 45.0758 35.8747 45.2571 35.672C45.4384 35.4693 45.5718 35.2453 45.6571 35L42.3771 26.584H44.4251L45.9931 30.616C46.0678 30.7973 46.1424 31.0267 46.2171 31.304C46.3024 31.5813 46.3878 31.8693 46.4731 32.168C46.5584 32.456 46.6278 32.7173 46.6811 32.952H46.7611C46.8038 32.792 46.8518 32.6107 46.9051 32.408C46.9584 32.2053 47.0118 31.9973 47.0651 31.784C47.1291 31.5707 47.1931 31.3627 47.2571 31.16C47.3211 30.9573 47.3744 30.7813 47.4171 30.632L48.6971 26.584H50.6811L47.8651 34.568C47.7051 35.016 47.5238 35.4427 47.3211 35.848C47.1291 36.2533 46.8998 36.6107 46.6331 36.92C46.3771 37.2293 46.0678 37.4693 45.7051 37.64C45.3531 37.8213 44.9371 37.912 44.4571 37.912Z" fill="white"/>
<path d="M80 19.9282L68 26.8564L68 13L80 19.9282Z" fill="#EC148E"/>
</svg>
