<svg xmlns="http://www.w3.org/2000/svg" width="102" height="102" viewBox="0 0 58 102" fill="none">
    <path fill-rule="evenodd" clip-rule="evenodd"
        d="M7.89867 101.311C-6.27603 99.0714 -3.97343 56.8378 47.6135 61.7944C47.9757 61.829 48.338 61.8931 48.7071 61.9061C58.7193 62.2548 54.5564 57.9166 49.2698 54.4986C48.7343 54.1522 48.1149 53.8651 47.5009 53.4833C35.5138 46.0358 25.8944 43.196 24.9142 57.1584C24.296 64.8482 10.9122 44.4399 24.758 24.0679L24.7628 24.0608C32.8974 33.4245 40.3783 43.2845 50.1749 51.3848C53.4001 54.0513 56.9423 55.7249 57.3502 60.5446C57.9061 67.11 53.1612 70.2763 48.1628 72.8515C33.5378 80.509 19.9975 90.0795 7.89867 101.311ZM15.2407 47.2717C10.3452 38.7028 5.35087 27.7314 4.95057 23.5545C4.20907 13.0218 12.0299 11.4174 18.4654 17.14C20.1891 18.9269 21.8573 20.7564 23.4932 22.6103C23.1301 23.0888 22.7758 23.5775 22.4305 24.0764C17.7052 30.8847 15.1946 38.9845 15.2407 47.2717ZM23.4932 22.6103L24.7628 24.0608L24.9224 23.8261C27.1667 20.5744 29.9497 17.7296 33.1514 15.4145C34.9743 18.1443 37.1984 25.0339 34.6214 29.9469C39.4522 26.1216 39.9982 20.5158 38.7796 16.0056C41.7741 17.6919 45.0697 20.5699 46.0263 24.2864C47.0616 18.106 43.5752 13.5315 39.5617 11.0293C41.7404 9.3515 45.0033 8.3971 47.5624 7.2193C44.4906 7.88119 41.5143 8.92698 38.7036 10.332C37.2129 5.6818 33.4 0.925196 26.8466 0.655396C30.2864 2.3559 32.4246 6.1733 33.4598 9.451C29.2966 7.3307 23.6973 6.71189 18.9606 10.6523C23.7239 9.30359 29.2424 12.02 32.007 14.2878C28.7743 16.6271 25.9053 19.4316 23.4932 22.6103Z"
        fill="url(#paint0_linear_546_8772)" />
    <defs>
        <linearGradient id="paint0_linear_546_8772" x1="14.8049" y1="52.5177" x2="41.915"
            y2="36.3156" gradientUnits="userSpaceOnUse">
            <stop stop-color="#EC148E" />
            <stop offset="1" stop-color="#C21F25" />
        </linearGradient>
    </defs>
</svg>