<svg width="176" height="64" viewBox="0 0 176 64" fill="none" xmlns="http://www.w3.org/2000/svg">
<g id="Ativo 1ILHA 1" clip-path="url(#clip0_86_2396)">
<g id="Camada 2">
<g id="Camada 1">
<path id="Vector" fill-rule="evenodd" clip-rule="evenodd" d="M60.038 64C50.9018 62.5761 52.386 35.7226 85.6358 38.8742C85.8693 38.8962 86.1028 38.9369 86.3407 38.9452C92.794 39.1669 90.1108 36.4085 86.7034 34.2353C86.3582 34.015 85.959 33.8325 85.5633 33.5897C77.8371 28.8543 71.637 27.0487 71.0052 35.9265C70.6067 40.8159 61.9803 27.8396 70.9045 14.8864L70.9076 14.8819C76.1507 20.8357 80.9724 27.105 87.2868 32.2554C89.3655 33.9509 91.6486 35.015 91.9115 38.0795C92.2698 42.254 89.2115 44.2672 85.9899 45.9046C76.5635 50.7735 67.8362 56.8588 60.038 64ZM64.7702 29.6402C61.6149 24.1918 58.3959 17.2158 58.1378 14.56C57.6599 7.86296 62.7007 6.84283 66.8487 10.4814C67.9597 11.6176 69.0349 12.7809 70.0893 13.9596C69.8553 14.2639 69.627 14.5746 69.4044 14.8918C66.3588 19.2208 64.7405 24.3709 64.7702 29.6402ZM70.0893 13.9596L70.9076 14.8819L71.0105 14.7327C72.457 12.6651 74.2508 10.8564 76.3144 9.38432C77.4893 11.12 78.9229 15.5006 77.2619 18.6245C80.3755 16.1922 80.7275 12.6279 79.942 9.76016C81.8721 10.8324 83.9962 12.6623 84.6128 15.0254C85.2801 11.0957 83.033 8.18705 80.4461 6.59607C81.8504 5.52927 83.9534 4.92243 85.6029 4.17354C83.623 4.5944 81.7046 5.25934 79.893 6.1527C78.9322 3.19595 76.4746 0.171548 72.2507 0C74.4678 1.08123 75.846 3.50846 76.5132 5.59253C73.8298 4.24437 70.2209 3.85092 67.1679 6.35636C70.238 5.49881 73.7949 7.22598 75.5768 8.66793C73.4932 10.1553 71.644 11.9385 70.0893 13.9596Z" fill="url(#paint0_linear_86_2396)"/>
<path id="Vector_2" fill-rule="evenodd" clip-rule="evenodd" d="M1.05421 41.1722V28.4629H0V41.1722H1.05421ZM42.2404 41.1722H43.2765V25.0625L42.2404 25.5735V31.2138L42.1523 31.2147C39.4273 31.2425 36.3407 32.0361 35.0203 34.6387C34.6289 35.4272 34.4299 36.295 34.4392 37.173C34.4392 39.3064 35.6325 41.1722 37.9647 41.1722C38.8808 41.1483 39.7669 40.8454 40.5016 40.3051C41.2363 39.7649 41.7836 39.0137 42.0685 38.1545L42.2404 37.7135V41.1722ZM42.2404 31.4805V35.7165C42.2924 36.9642 41.8861 38.1884 41.0961 39.1642C40.7962 39.5161 40.4233 39.8006 40.0027 39.9986C39.5821 40.1966 39.1234 40.3035 38.6574 40.3121C38.4857 40.3122 38.3143 40.2969 38.1454 40.2665C36.3549 39.9444 35.6212 38.2295 35.6212 36.5977C35.6212 32.8857 38.8541 31.5222 42.1503 31.4816L42.2404 31.4805ZM51.1748 31.1779C50.4908 31.1543 49.8092 31.27 49.1726 31.518C48.536 31.7659 47.9581 32.1408 47.475 32.619C46.9919 33.0973 46.614 33.6687 46.3649 34.2976C46.1158 34.9265 46.0009 35.5993 46.0273 36.2739C45.9981 36.9382 46.1096 37.6012 46.3545 38.2206C46.5995 38.84 46.9725 39.4023 47.45 39.8715C47.9274 40.3408 48.4987 40.7069 49.1275 40.9463C49.7562 41.1857 50.4287 41.2933 51.1019 41.2621C51.7853 41.2893 52.4669 41.1765 53.1039 40.931C53.7409 40.6854 54.3195 40.3123 54.8031 39.8352C55.2867 39.3581 55.6649 38.7874 55.9138 38.159C56.1627 37.5306 56.277 36.8581 56.2494 36.184C56.2775 35.5192 56.1655 34.8558 55.9204 34.2359C55.6753 33.616 55.3025 33.053 54.8256 32.5825C54.3486 32.112 53.7779 31.7443 53.1495 31.5025C52.5211 31.2607 51.8487 31.1502 51.1748 31.1779ZM51.6485 40.9233C48.7854 40.9233 47.2092 38.1073 47.2092 35.5726C47.2092 33.4886 48.2793 31.5166 50.6282 31.5166C53.501 31.5166 55.0679 34.3467 55.0679 36.8853C55.0679 38.9724 53.9958 40.9233 51.6485 40.9233ZM4.33357 25.5731V41.1722H5.38778V25.0634L4.33357 25.5731ZM15.8484 41.1722H16.8843L16.9028 34.1704C16.9073 32.5048 16.093 31.1779 14.2705 31.1779C13.3538 31.2379 12.4665 31.5219 11.6886 32.0043C10.9107 32.4866 10.2667 33.1522 9.81436 33.9411L9.64845 34.2225V25.0634L8.59444 25.5731V41.1722H9.64845V34.8472L9.65484 34.8313C10.3001 33.2703 11.9832 31.6785 13.7783 31.6785C15.2734 31.6785 15.8484 32.8505 15.8484 34.1702V41.1722ZM27.3633 41.1722H28.3996V31.3398H27.4256C24.6375 31.3398 21.4086 32.1276 20.0948 34.8257C19.7367 35.5765 19.5547 36.3973 19.5624 37.227C19.5624 39.376 20.8017 41.2621 23.1423 41.2621C24.0487 41.2355 24.9246 40.9327 25.6496 40.3953C26.3746 39.8579 26.9131 39.1123 27.1914 38.2609L27.3633 37.8191V41.1722ZM27.3633 31.6066V35.8244C27.4169 37.0743 27.0106 38.3012 26.2192 39.2788C25.9186 39.6295 25.5455 39.9127 25.1249 40.1095C24.7043 40.3063 24.2459 40.4121 23.7805 40.4199C23.5964 40.42 23.4128 40.4028 23.2322 40.3683C21.4634 40.031 20.7443 38.3449 20.7443 36.7234C20.7443 33.0118 23.9771 31.648 27.2732 31.6076L27.3633 31.6066Z" fill="#272530"/>
<path id="Vector_3" fill-rule="evenodd" clip-rule="evenodd" d="M98.0685 23.5705V44.6941H99.8655V35.0338H105.873C106.658 35.0491 107.437 34.9068 108.165 34.6157C108.892 34.3245 109.551 33.8906 110.103 33.3401C110.655 32.7897 111.088 32.1343 111.375 31.4139C111.662 30.6934 111.798 29.9228 111.774 29.149C111.721 27.6442 111.074 26.2193 109.972 25.1775C108.87 24.1356 107.4 23.5591 105.873 23.5705H98.0685ZM99.8655 34.5429V24.0616H105.359C108.17 24.0616 110.007 26.7224 110.007 29.3021C110.007 31.7474 108.436 34.2228 105.823 34.5439L99.8655 34.5429ZM116.035 28.0861L114.238 28.9552V44.6941H116.035V36.9052C116.035 34.8945 116.529 32.8129 118.004 31.344C118.55 30.8065 119.199 30.3814 119.913 30.0934C120.628 29.8055 121.393 29.6606 122.164 29.667H122.292V27.9046L122.146 27.925C119.257 28.3285 117.171 30.3602 116.208 33.0069L116.035 33.4815V28.0861ZM134.337 44.6941V39.2267L134.165 39.7052C133.703 41.0373 132.896 42.2274 131.825 43.1576C130.59 44.2278 129.006 44.8258 127.362 44.843C126.662 44.845 125.967 44.7265 125.308 44.4928C122.549 43.5044 121.401 40.8672 121.401 38.1277C121.388 36.7484 121.691 35.384 122.286 34.1359C124.47 29.6523 129.832 28.3411 134.465 28.3411H136.104V44.6941H134.337ZM134.337 28.8322L134.248 28.8332C128.786 28.8909 123.41 31.1373 123.41 37.2929C123.41 39.9705 124.596 42.7562 127.517 43.3133C127.815 43.3699 128.117 43.3983 128.42 43.398C129.189 43.3851 129.945 43.2104 130.64 42.8855C131.334 42.5606 131.95 42.0931 132.446 41.5142C133.754 39.8976 134.426 37.8688 134.337 35.802V28.8322ZM149.554 28.6807V28.3411H138.418V28.7724H147.662L138.418 44.3546V44.6941H149.07V44.2626H140.31L149.554 28.6807ZM165.678 41.795L165.226 41.4609L165.154 41.5815C164.286 43.019 160.899 43.756 159.309 43.756C158.012 43.7027 156.743 43.3574 155.601 42.7465C154.46 42.1356 153.475 41.2752 152.721 40.2311L152.664 40.1473L158.005 37.5852C160.13 36.5658 163.608 34.6408 163.608 31.9558C163.608 29.0284 160.967 27.9239 158.372 27.9239C153.343 27.9239 150.054 31.7543 150.054 36.577C150.054 41.5568 153.485 44.7835 158.493 44.7835C160.86 44.7835 164.236 43.9624 165.612 41.8938L165.678 41.795ZM152.365 39.7093C151.585 38.3753 151.168 36.8648 151.156 35.3249C151.156 31.8439 153.535 28.9512 157.194 28.9512C159.272 28.9512 161.992 29.9393 161.992 32.3732C161.992 34.9071 159.071 36.4941 157.076 37.478L152.406 39.7812L152.365 39.7093ZM169.743 28.0861L167.946 28.9552V44.6941H169.743V36.9052C169.743 34.8945 170.238 32.8129 171.712 31.344C172.258 30.8065 172.907 30.3814 173.622 30.0935C174.336 29.8055 175.101 29.6606 175.872 29.667H176V27.9046L175.854 27.925C172.965 28.3287 170.88 30.36 169.916 33.0069L169.743 33.4815V28.0861Z" fill="url(#paint1_linear_86_2396)"/>
</g>
</g>
</g>
<defs>
<linearGradient id="paint0_linear_86_2396" x1="64.4894" y1="32.9757" x2="81.837" y2="22.4661" gradientUnits="userSpaceOnUse">
<stop stop-color="#EC148E"/>
<stop offset="1" stop-color="#C21F25"/>
</linearGradient>
<linearGradient id="paint1_linear_86_2396" x1="131.173" y1="51.0379" x2="136.489" y2="28.2775" gradientUnits="userSpaceOnUse">
<stop stop-color="#EC148E"/>
<stop offset="1" stop-color="#C21F25"/>
</linearGradient>
<clipPath id="clip0_86_2396">
<rect width="176" height="64" fill="white"/>
</clipPath>
</defs>
</svg>
